<?xml version="1.0" encoding="UTF-8"?>
<svg version="1.1" viewBox="0 0 24 24" xml:space="preserve" xmlns="http://www.w3.org/2000/svg"><defs><style class="style-fonts"/></defs><g><path d="m16.637 22.317c-0.04748-0.0068-0.22619-0.02935-0.39713-0.04998-1.8323-0.22106-4.2628-1.5308-4.3878-2.3645-0.11216-0.74791 0.61491-1.1812 1.1618-0.69229 1.8646 1.6669 4.7049 2.0749 6.8693 0.9868 0.65465-0.3291 1.9243-1.3421 1.8112-1.4451-0.01801-0.01641-0.27861-0.24278-0.57913-0.50307l-0.54639-0.47325-0.1636 0.15302c-2.043 1.911-6.0645 1.3343-7.1744-1.0288-0.39406-0.83904 0.67088-1.5404 1.272-0.83772 1.6372 1.9137 3.4786 2.096 5.1223 0.50714 0.83772-0.80979 0.90807-0.79427 2.4164 0.53285 1.2549 1.1042 1.3201 1.1925 1.2881 1.7455-0.05369 0.92736-1.948 2.4997-3.725 3.0919-0.92973 0.30983-2.2625 0.4794-2.9676 0.37756zm-7.8063-0.36857c-0.41281-0.11639-0.50945-0.24009-0.85786-1.0981-0.94017-2.3152-1.0585-2.6034-3.7848-9.2169-0.45021-1.0921-1.1527-2.8015-1.5612-3.7987-0.40845-0.99716-1.0159-2.4735-1.3499-3.2807-0.80566-1.9473-0.81968-2.2205-0.13246-2.5831l0.1768-0.09327 1.238-0.01023c1.7328-0.01438 1.7431-0.0097 2.1307 0.96478 0.07828 0.19678 0.34153 0.83952 0.58501 1.4283 0.24348 0.5888 0.85825 2.0806 1.3662 3.3152 0.50791 1.2346 1.0833 2.6332 1.2787 3.108 0.62073 1.5088 0.62898 1.527 0.65733 1.4504 0.08159-0.22043 1.4624-3.7701 2.038-5.2392 2.066-5.2728 8.311-6.7758 12.172-2.9293 1.0973 1.0932 1.0119 1.4885-0.64181 2.9716-1.4857 1.3324-1.7583 1.4115-2.5223 0.73124-0.61373-0.54639-0.9433-0.74647-1.3972-0.84823-1.5975-0.35814-2.6384 0.41841-3.4892 2.6031-0.09986 0.25641-0.44904 1.1422-0.77597 1.9684-0.32693 0.82621-0.78456 1.9917-1.017 2.59-0.2324 0.5983-0.60138 1.5229-0.81995 2.0547-0.21857 0.53182-0.78521 1.946-1.2592 3.1426-0.47399 1.1966-0.89943 2.24-0.94542 2.3187-0.21512 0.36816-0.68724 0.56367-1.0882 0.45063zm1.0849-4.402c1.3668-3.4205 1.8988-4.7695 3.3262-8.4339 0.6056-1.5547 0.82495-1.958 1.3983-2.5708 1.552-1.6588 3.9314-1.7628 5.7064-0.24939l0.15536 0.13246 0.67627-0.61153c0.78089-0.70613 0.75006-0.61098 0.3193-0.98525-2.5158-2.1859-6.4015-1.8206-8.4971 0.79873-0.49396 0.6174-0.47602 0.5775-2.1264 4.7289-1.874 4.7139-1.7009 4.3292-2.0242 4.4993-0.52037 0.27371-0.83884 0.03211-1.2199-0.92548-0.25771-0.6476-0.77446-1.9023-2.7591-6.6991-0.86443-2.0893-1.5793-3.8181-1.5886-3.8419-0.01516-0.03867-0.94193-0.06963-0.94193-0.03146 0 0.03738 4.4485 10.799 6.3618 15.39 0.17018 0.40836 0.3176 0.76967 0.32761 0.8029 0.03528 0.11716 0.06931 0.04023 0.8861-2.0038z" stroke-width="2.063"/><g transform="matrix(.40692 0 0 .40692 14.048 7.117)" stroke-linecap="round" stroke-linejoin="round" stroke-width="2"><path d="m15.293 5.293a1 1 0 0 0 0 1.4141l5.293 5.293-5.293 5.293a1 1 0 0 0 0 1.4141 1 1 0 0 0 1.4141 0l6-6a1.0001 1.0001 0 0 0 0-1.4141l-6-6a1 1 0 0 0-1.4141 0z" stop-color="#000000"/><path d="m8 5a1 1 0 0 0-0.70703 0.29297l-6 6a1.0001 1.0001 0 0 0 0 1.4141l6 6a1 1 0 0 0 1.4141 0 1 1 0 0 0 0-1.4141l-5.293-5.293 5.293-5.293a1 1 0 0 0 0-1.4141 1 1 0 0 0-0.70703-0.29297z" stop-color="#000000"/></g></g></svg>
