<?xml version="1.0" encoding="UTF-8"?>
<svg version="1.1" viewBox="0 0 24 24" xml:space="preserve" xmlns="http://www.w3.org/2000/svg"><defs><style class="style-fonts"/></defs><g><g transform="matrix(.39462 0 0 .39462 13.885 7.5238)" stroke-linecap="round" stroke-linejoin="round" stroke-width="4.875"><path d="m12 1c-2.8223 0.04338-5.774 0.29645-8.3095 1.6397-1.084 0.55904-2.0633 1.8187-1.5579 3.0821 0.69454 1.5879 2.5238 2.1657 4.0587 2.6068 3.6715 0.88694 7.5604 0.89369 11.248 0.092507 1.5855-0.42023 3.4178-0.93347 4.3104-2.4377 0.67896-1.1752-0.11286-2.5834-1.1882-3.1883-2.3499-1.3914-5.1681-1.6713-7.8437-1.7863-0.23916-0.0059358-0.47839-0.0088551-0.71762-0.0088555zm0 2c2.4418 0.047086 4.9902 0.22936 7.2157 1.3232 0.90062 0.24952 0.9006 1.1041 0 1.3536-2.3641 1.1514-5.0739 1.3116-7.662 1.3193-2.3558-0.091889-4.8305-0.2822-6.9442-1.4196-1.327-0.57298 0.22175-1.3936 0.94508-1.6051 2.0537-0.75137 4.2731-0.95082 6.4454-0.97142z" stop-color="#000000"/><path d="m3 4c-1.0943 0.025862-1.0192 1.18-1 1.9514 0.00402 4.4036-0.00804 8.8076 0.00604 13.211 0.16994 1.6914 1.9026 2.5612 3.3528 2.9948 3.5194 1.0024 7.2656 1.0261 10.872 0.54062 1.8185-0.33171 3.8495-0.69472 5.1577-2.1205 0.8577-0.92475 0.55631-2.2231 0.61155-3.3613v-12.216c-0.12484-1.6784-2.4035-0.86522-2 0.53518-0.0076 4.5204 0.01519 9.0427-0.01139 13.562-0.59088 0.86017-1.7452 1.076-2.6916 1.3555-3.4737 0.741-7.1203 0.741-10.594 0-0.94645-0.27954-2.1007-0.49534-2.6916-1.3555-0.026563-4.6977-0.0038033-9.3983-0.011388-14.097 0.012235-0.53636-0.46359-1.0122-1-1z" stop-color="#000000"/><path d="m3 11c-1.7214 0.33398-0.86934 2.4698 0.16797 3.1074 1.9376 1.3436 4.3836 1.6044 6.6705 1.8185 3.2735 0.17296 6.6744 0.08538 9.765-1.1191 1.2266-0.48598 2.5478-1.5704 2.3714-3.0293-0.27278-1.2487-2.1593-0.80696-2.0369 0.43104-0.99594 1.0008-2.4976 1.2124-3.826 1.4792-3.3651 0.48424-6.8659 0.47188-10.159-0.4402-0.96948-0.28297-2.0554-0.75787-2.1712-1.871-0.18567-0.23565-0.48183-0.37827-0.78183-0.37651z" stop-color="#000000"/></g><path d="m16.637 22.317c-0.04748-0.0068-0.22619-0.02935-0.39713-0.04998-1.8323-0.22106-4.2628-1.5308-4.3878-2.3645-0.11216-0.74791 0.61491-1.1812 1.1618-0.69229 1.8646 1.6669 4.7049 2.0749 6.8693 0.9868 0.65465-0.3291 1.9243-1.3421 1.8112-1.4451-0.01801-0.01641-0.27861-0.24278-0.57913-0.50307l-0.54639-0.47325-0.1636 0.15302c-2.043 1.911-6.0645 1.3343-7.1744-1.0288-0.39406-0.83904 0.67088-1.5404 1.272-0.83772 1.6372 1.9137 3.4786 2.096 5.1223 0.50714 0.83772-0.80979 0.90807-0.79427 2.4164 0.53285 1.2549 1.1042 1.3201 1.1925 1.2881 1.7455-0.05369 0.92736-1.948 2.4997-3.725 3.0919-0.92973 0.30983-2.2625 0.4794-2.9676 0.37756zm-7.8063-0.36857c-0.41281-0.11639-0.50945-0.24009-0.85786-1.0981-0.94017-2.3152-1.0585-2.6034-3.7848-9.2169-0.45021-1.0921-1.1527-2.8015-1.5612-3.7987-0.40845-0.99716-1.0159-2.4735-1.3499-3.2807-0.80566-1.9473-0.81968-2.2205-0.13246-2.5831l0.1768-0.09327 1.238-0.01023c1.7328-0.01438 1.7431-0.0097 2.1307 0.96478 0.07828 0.19678 0.34153 0.83952 0.58501 1.4283 0.24348 0.5888 0.85825 2.0806 1.3662 3.3152 0.50791 1.2346 1.0833 2.6332 1.2787 3.108 0.62073 1.5088 0.62898 1.527 0.65733 1.4504 0.08159-0.22043 1.4624-3.7701 2.038-5.2392 2.066-5.2728 8.311-6.7758 12.172-2.9293 1.0973 1.0932 1.0119 1.4885-0.64181 2.9716-1.4857 1.3324-1.7583 1.4115-2.5223 0.73124-0.61373-0.54639-0.9433-0.74647-1.3972-0.84823-1.5975-0.35814-2.6384 0.41841-3.4892 2.6031-0.09986 0.25641-0.44904 1.1422-0.77597 1.9684-0.32693 0.82621-0.78456 1.9917-1.017 2.59-0.2324 0.5983-0.60138 1.5229-0.81995 2.0547-0.21857 0.53182-0.78521 1.946-1.2592 3.1426-0.47399 1.1966-0.89943 2.24-0.94542 2.3187-0.21512 0.36816-0.68724 0.56367-1.0882 0.45063zm1.0849-4.402c1.3668-3.4205 1.8988-4.7695 3.3262-8.4339 0.6056-1.5547 0.82495-1.958 1.3983-2.5708 1.552-1.6588 3.9314-1.7628 5.7064-0.24939l0.15536 0.13246 0.67627-0.61153c0.78089-0.70613 0.75006-0.61098 0.3193-0.98525-2.5158-2.1859-6.4015-1.8206-8.4971 0.79873-0.49396 0.6174-0.47602 0.5775-2.1264 4.7289-1.874 4.7139-1.7009 4.3292-2.0242 4.4993-0.52037 0.27371-0.83884 0.03211-1.2199-0.92548-0.25771-0.6476-0.77446-1.9023-2.7591-6.6991-0.86443-2.0893-1.5793-3.8181-1.5886-3.8419-0.01516-0.03867-0.94193-0.06963-0.94193-0.03146 0 0.03738 4.4485 10.799 6.3618 15.39 0.17018 0.40836 0.3176 0.76967 0.32761 0.8029 0.03528 0.11716 0.06931 0.04023 0.8861-2.0038z" stroke-width="2.063"/></g></svg>
